<svg xmlns="http://www.w3.org/2000/svg" width="8.947" height="13.665" viewBox="0 0 8.947 13.665">
  <path id="Path_1024" data-name="Path 1024" d="M149.832,163.276a3.123,3.123,0,0,0-1.506-2.512l-.646-.5a.981.981,0,0,1-.466-.771,1.261,1.261,0,0,1,.5-.879,2.921,2.921,0,0,0,.233-4.967h1.111l1.147-.646h-3.694a4.889,4.889,0,0,0-3.21.986,3.224,3.224,0,0,0-1.147,2.4,2.835,2.835,0,0,0,2.976,2.816c.18,0,.376-.018.575-.036a1.61,1.61,0,0,0-.179.7,1.882,1.882,0,0,0,.538,1.219,7.716,7.716,0,0,0-3.425.825,2.581,2.581,0,0,0-1.381,2.188c0,1.327,1.256,2.564,3.856,2.564C148.2,166.665,149.832,164.961,149.832,163.276Zm-3.856-4.573c-1.543,0-2.242-1.991-2.242-3.192a2.069,2.069,0,0,1,.395-1.327,1.677,1.677,0,0,1,1.256-.593c1.489,0,2.259,2.009,2.259,3.3a1.811,1.811,0,0,1-.448,1.31A1.84,1.84,0,0,1,145.976,158.7Zm.018,7.208c-1.919,0-3.156-.914-3.156-2.187a2.016,2.016,0,0,1,1.543-1.846,7.189,7.189,0,0,1,1.883-.288,2.832,2.832,0,0,1,.412.018c1.364.968,1.954,1.452,1.954,2.367C148.63,165.087,147.716,165.911,145.994,165.911Z" transform="translate(-141.261 -153)" fill="#fff"/>
</svg>
