<svg xmlns="http://www.w3.org/2000/svg" width="13.585" height="11.646" viewBox="0 0 13.585 11.646">
  <path id="Path_1027" data-name="Path 1027" d="M153.461,168.073c0-.127,0-.253-.008-.378a5.731,5.731,0,0,0,1.391-1.5,5.341,5.341,0,0,1-1.6.438,2.861,2.861,0,0,0,1.226-1.6,5.353,5.353,0,0,1-1.77.682,2.773,2.773,0,0,0-2.035-.96,2.816,2.816,0,0,0-2.787,2.9,3.1,3.1,0,0,0,.072.673,7.849,7.849,0,0,1-5.746-3.174,3.126,3.126,0,0,0,.862,3.982,2.668,2.668,0,0,1-1.263-.387v.038a2.961,2.961,0,0,0,2.236,2.934,2.64,2.64,0,0,1-.734.1,2.547,2.547,0,0,1-.524-.057,2.833,2.833,0,0,0,2.6,2.075,5.38,5.38,0,0,1-3.461,1.26,5.309,5.309,0,0,1-.665-.042,7.519,7.519,0,0,0,4.273,1.34C150.658,176.405,153.461,171.944,153.461,168.073Z" transform="translate(-141.259 -164.758)" fill="#fff"/>
</svg>
